<?xml version="1.0" standalone="no"?>
<!DOCTYPE svg PUBLIC "-//W3C//DTD SVG 20010904//EN"
 "http://www.w3.org/TR/2001/REC-SVG-20010904/DTD/svg10.dtd">
<svg version="1.0" xmlns="http://www.w3.org/2000/svg"
 width="245.000000pt" height="206.000000pt" viewBox="0 0 245.000000 206.000000"
 preserveAspectRatio="xMidYMid meet">

<g transform="translate(0.000000,206.000000) scale(0.100000,-0.100000)"
fill="#000000" stroke="none">
<path d="M1075 2050 c3 -5 12 -7 20 -3 21 7 19 13 -6 13 -11 0 -18 -4 -14 -10z"/>
<path d="M1331 2056 c12 -10 59 -15 59 -6 0 5 -14 10 -32 10 -17 0 -29 -2 -27
-4z"/>
<path d="M1200 2003 c0 -6 14 -13 31 -17 49 -10 139 -7 139 4 0 6 -15 10 -32
10 -18 0 -57 3 -85 6 -33 4 -53 3 -53 -3z"/>
<path d="M1030 1986 c-134 -30 -272 -92 -377 -170 -90 -66 -78 -77 15 -12 144
101 299 160 449 173 40 3 73 10 73 14 0 13 -95 9 -160 -5z"/>
<path d="M1390 1982 c0 -5 43 -21 96 -35 94 -27 191 -70 247 -109 31 -22 47
-18 27 7 -7 9 -19 14 -27 11 -7 -3 -13 1 -13 8 0 17 -136 79 -231 106 -81 22
-99 24 -99 12z"/>
<path d="M1210 1841 c0 -56 3 -71 15 -71 9 0 15 9 15 25 0 14 5 25 10 25 6 0
10 -11 10 -24 0 -13 7 -26 15 -30 12 -4 14 7 12 67 l-2 72 -37 3 -38 3 0 -70z"/>
<path d="M1088 1853 c8 -75 17 -92 47 -89 39 4 45 16 38 79 -5 46 -9 57 -23
57 -16 0 -18 -8 -14 -62 3 -45 2 -57 -5 -43 -5 11 -10 39 -10 63 -1 34 -4 42
-20 42 -16 0 -18 -6 -13 -47z"/>
<path d="M1353 1885 c-14 -10 -24 -31 -29 -60 -8 -53 5 -75 44 -72 19 2 28 10
34 32 8 31 -5 49 -29 40 -8 -2 -13 4 -13 15 0 24 16 35 24 15 9 -23 26 -18 26
9 0 13 -7 27 -16 30 -20 8 -16 8 -41 -9z m13 -102 c-10 -10 -19 5 -10 18 6 11
8 11 12 0 2 -7 1 -15 -2 -18z"/>
<path d="M973 1873 c-24 -9 -14 -32 11 -27 33 6 43 -12 11 -20 -22 -6 -24 -10
-19 -34 14 -57 21 -62 57 -47 26 11 32 19 30 41 -1 15 -7 30 -13 34 -6 4 -10
11 -9 16 6 31 -3 44 -28 43 -16 0 -34 -3 -40 -6z m57 -93 c0 -11 -2 -20 -4
-20 -2 0 -6 9 -9 20 -3 11 -1 20 4 20 5 0 9 -9 9 -20z"/>
<path d="M1443 1810 l-20 -70 24 -6 c27 -7 44 3 25 15 -16 10 -6 37 16 46 14
5 14 7 2 16 -13 8 -12 12 5 25 20 15 20 15 1 30 -11 8 -23 14 -26 14 -3 0 -15
-32 -27 -70z"/>
<path d="M1820 1866 c0 -2 8 -10 18 -17 15 -13 16 -12 3 4 -13 16 -21 21 -21
13z"/>
<path d="M1553 1828 c-20 -26 -34 -77 -30 -104 l4 -29 14 33 c8 19 21 32 31
32 24 0 23 -17 -2 -30 -22 -12 -27 -40 -7 -40 14 0 57 85 57 112 0 8 -11 20
-25 26 -32 15 -30 15 -42 0z m37 -33 c0 -8 -4 -15 -10 -15 -5 0 -7 7 -4 15 4
8 8 15 10 15 2 0 4 -7 4 -15z"/>
<path d="M835 1818 c-11 -6 -22 -12 -24 -14 -2 -2 8 -13 22 -25 15 -11 27 -26
27 -34 0 -19 37 -61 46 -52 4 4 -2 28 -14 53 -13 26 -20 54 -17 65 7 22 -9 25
-40 7z"/>
<path d="M1796 1812 c-3 -5 26 -37 64 -71 39 -34 67 -54 63 -44 -13 37 -117
131 -127 115z"/>
<path d="M1880 1816 c0 -2 8 -10 18 -17 15 -13 16 -12 3 4 -13 16 -21 21 -21
13z"/>
<path d="M1656 1761 c-13 -14 -14 -24 -7 -45 11 -27 5 -56 -10 -56 -6 0 -5 8
0 19 8 14 7 20 -4 25 -9 3 -19 -3 -25 -14 -8 -15 -6 -24 10 -40 25 -25 40 -25
47 0 3 11 10 20 15 20 6 0 7 18 4 43 -3 23 -3 34 0 24 6 -19 35 -20 41 -1 5
14 -24 44 -41 44 -7 0 -20 -8 -30 -19z"/>
<path d="M731 1756 c-8 -10 -8 -21 -1 -41 8 -22 13 -25 24 -15 12 9 19 7 35
-9 22 -22 28 -37 11 -26 -5 3 -17 2 -26 -3 -14 -8 -14 -10 0 -21 19 -16 53 -6
61 18 9 28 -5 51 -34 57 -52 11 -58 15 -33 25 13 5 20 13 17 19 -9 14 -41 12
-54 -4z"/>
<path d="M533 1716 c-34 -36 -28 -54 7 -21 29 28 38 45 23 45 -5 0 -18 -11
-30 -24z"/>
<path d="M660 1699 c-10 -5 -11 -9 -3 -9 7 0 10 -6 7 -14 -3 -8 -1 -17 5 -21
6 -3 11 -13 11 -22 0 -9 10 -27 21 -39 17 -18 26 -21 40 -13 11 5 19 17 19 25
0 8 -5 12 -10 9 -15 -9 -40 14 -33 31 3 9 -2 14 -17 14 -17 0 -21 4 -17 20 6
24 -4 32 -23 19z"/>
<path d="M1110 1680 c-26 -16 -5 -19 45 -5 l50 13 -40 1 c-22 0 -47 -3 -55 -9z"/>
<path d="M1230 1680 c14 -4 43 -9 65 -9 108 -3 271 -81 378 -181 43 -40 81
-70 84 -66 4 4 -26 39 -68 79 -120 116 -289 188 -434 186 -40 -1 -45 -3 -25
-9z"/>
<path d="M1940 1670 c0 -5 5 -10 10 -10 6 0 10 -6 10 -14 0 -8 12 -25 28 -38
15 -13 28 -29 29 -36 5 -21 64 -112 74 -112 14 0 11 9 -22 64 -68 111 -129
180 -129 146z"/>
<path d="M990 1648 c-80 -30 -240 -139 -240 -164 0 -5 -16 -24 -35 -43 -35
-34 -43 -51 -25 -51 6 0 10 4 10 10 0 5 27 39 60 74 67 70 153 128 233 156 28
10 53 23 55 29 4 13 8 14 -58 -11z"/>
<path d="M471 1646 c-8 -10 -9 -16 -1 -21 5 -3 13 1 16 10 9 22 -1 29 -15 11z"/>
<path d="M569 1604 l-24 -26 50 -44 c28 -24 53 -44 57 -44 7 0 48 54 48 64 0
3 -11 6 -25 6 -19 0 -23 -4 -18 -17 6 -16 4 -16 -9 -5 -9 7 -16 27 -16 44 1
26 -14 47 -33 48 -3 0 -16 -12 -30 -26z"/>
<path d="M1213 1623 c9 -2 23 -2 30 0 6 3 -1 5 -18 5 -16 0 -22 -2 -12 -5z"/>
<path d="M413 1562 c-39 -59 -73 -127 -73 -147 0 -8 -4 -15 -9 -15 -4 0 -17
-30 -29 -67 -26 -89 -32 -113 -24 -113 4 0 20 40 36 88 15 48 46 121 69 162
63 117 69 131 65 135 -2 2 -18 -17 -35 -43z"/>
<path d="M1830 1569 c0 -12 -8 -28 -17 -36 -17 -14 -17 -14 -1 -9 10 3 21 -1
25 -8 11 -18 83 -27 76 -9 -3 7 -9 13 -13 13 -4 0 -17 16 -29 35 -23 40 -41
45 -41 14z"/>
<path d="M2180 1444 c-52 -7 -103 -13 -114 -13 -11 -1 -16 -6 -13 -15 7 -17
-11 -36 -35 -36 -11 0 -18 7 -18 20 0 18 -5 20 -32 16 -18 -3 -85 -13 -148
-21 -63 -9 -117 -19 -120 -23 -3 -4 -42 -8 -87 -10 -45 -1 -95 -7 -110 -14
-16 -6 -57 -12 -93 -13 -36 -1 -130 -12 -210 -24 -80 -12 -170 -24 -200 -27
-30 -3 -73 -10 -95 -15 -22 -6 -47 -10 -55 -10 -63 -1 -419 -53 -436 -64 -12
-8 -25 -10 -30 -5 -5 5 -21 6 -36 3 -20 -4 -30 -14 -40 -42 -8 -23 -13 -30
-16 -19 -2 9 2 26 8 38 11 20 9 21 -22 16 -18 -4 -76 -12 -130 -20 -113 -16
-147 -35 -148 -83 0 -17 4 -33 9 -35 5 -1 19 -79 30 -173 28 -223 29 -232 46
-248 17 -17 166 -16 260 3 64 12 395 57 484 65 29 3 58 8 64 12 6 4 31 7 56 8
25 1 90 8 145 15 82 11 99 16 104 32 5 20 29 19 24 -2 -2 -10 8 -11 40 -6 24
4 97 14 162 22 88 11 123 19 132 31 10 15 14 15 28 4 14 -12 29 -12 84 -2 37
6 209 30 382 52 240 31 325 46 358 62 l42 21 0 62 c0 36 -5 64 -11 66 -6 2
-13 26 -16 53 -7 81 -12 97 -28 91 -23 -9 -32 44 -11 60 15 11 17 22 11 78
-12 110 -28 117 -215 90z m100 -20 c0 -8 -4 -12 -10 -9 -5 3 -10 10 -10 16 0
5 5 9 10 9 6 0 10 -7 10 -16z m-4 -66 c8 -8 18 -34 21 -56 l5 -40 -43 -13
c-46 -13 -79 -32 -38 -22 13 3 21 2 16 -2 -4 -5 10 -18 30 -29 46 -26 73 -76
73 -134 0 -58 -12 -77 -60 -96 -58 -23 -123 -23 -157 0 -15 10 -33 17 -39 16
-16 -3 -27 30 -14 38 7 4 8 18 4 35 -8 34 6 45 63 45 38 0 43 -3 49 -27 12
-56 13 -58 30 -42 28 29 2 65 -76 104 -79 40 -100 70 -100 146 0 44 11 58 65
85 39 19 149 14 171 -8z m-333 -39 c41 -19 65 -132 33 -161 -12 -11 -11 -16 6
-35 22 -24 37 -83 38 -149 0 -39 -2 -42 -31 -48 -74 -15 -76 -13 -84 67 -8 77
-21 115 -36 100 -5 -5 -3 -44 5 -93 8 -47 13 -86 12 -86 0 -1 -28 -5 -62 -9
l-61 -7 -7 49 c-23 162 -46 356 -43 359 6 6 116 21 164 23 23 0 53 -4 66 -10z
m-318 -20 c16 -3 21 -13 23 -47 3 -38 1 -42 -20 -42 -33 0 -45 -15 -40 -48 3
-25 7 -27 37 -24 30 4 35 1 40 -21 12 -44 3 -62 -33 -65 -29 -3 -32 -6 -28
-30 2 -15 5 -33 5 -40 1 -10 14 -13 43 -10 42 3 42 2 50 -36 5 -22 7 -41 5
-43 -2 -1 -30 -8 -63 -14 -32 -6 -62 -16 -66 -22 -5 -8 -10 -7 -20 1 -8 6 -23
9 -35 6 -24 -7 -21 -21 -54 231 -11 88 -25 162 -30 163 -23 9 -5 22 30 22 21
0 59 3 84 6 36 5 44 10 40 23 -3 10 -2 12 4 5 4 -7 17 -13 28 -15z m-465 -29
c0 -5 -7 -10 -15 -10 -8 0 -15 5 -15 10 0 6 7 10 15 10 8 0 15 -4 15 -10z
m206 -18 c-4 -10 1 -32 9 -49 8 -16 18 -44 21 -61 7 -36 4 -38 -68 -45 l-46
-4 -12 45 c-8 32 -14 42 -22 34 -7 -7 -5 -47 8 -139 19 -129 36 -164 42 -85 2
33 0 42 -12 42 -12 0 -16 10 -16 35 0 24 5 35 15 35 8 0 15 6 16 13 0 6 2 8 5
2 2 -5 26 -8 52 -7 l48 4 12 -90 c17 -129 17 -129 -20 -135 -18 -3 -37 -1 -42
4 -5 4 -20 -1 -34 -11 -48 -38 -131 -17 -162 40 -12 23 -40 206 -40 264 0 37
5 48 34 74 40 35 98 48 152 33 31 -9 40 -8 47 4 11 21 20 19 13 -3z m-355 -57
c38 -13 64 -140 34 -165 -13 -11 -12 -15 9 -35 20 -18 25 -36 31 -104 4 -45 6
-84 4 -85 -2 -2 -28 -6 -57 -9 -36 -4 -56 -2 -64 7 -10 11 -14 9 -23 -7 -13
-27 -104 -34 -111 -8 -3 9 -11 28 -18 43 -8 14 -10 30 -6 35 5 4 0 71 -11 148
-14 103 -23 143 -36 152 -24 18 -8 28 42 25 25 -1 55 2 67 7 23 9 107 6 139
-4z m1349 -5 c0 -5 -4 -10 -10 -10 -5 0 -10 5 -10 10 0 6 5 10 10 10 6 0 10
-4 10 -10z m-1927 -25 c-3 -9 -8 -14 -10 -11 -3 3 -2 9 2 15 9 16 15 13 8 -4z
m281 -12 c3 -10 8 -44 11 -75 5 -43 11 -55 21 -51 8 3 14 0 14 -6 0 -6 -4 -11
-10 -11 -6 0 -8 -37 -4 -102 6 -95 5 -105 -15 -129 -22 -29 -103 -55 -144 -47
-13 3 -29 -1 -35 -9 -20 -21 -42 -16 -42 11 0 13 -7 40 -15 59 -8 20 -23 93
-32 163 -16 115 -20 127 -41 135 -24 9 -22 29 3 29 7 0 15 4 17 10 2 5 28 12
59 16 64 7 66 5 75 -79 6 -66 24 -200 29 -224 9 -40 28 -26 21 15 -8 49 -12
89 -14 135 -1 21 -6 36 -10 33 -5 -3 -7 7 -4 22 2 15 -1 46 -6 69 -11 47 -8
49 75 52 32 1 43 -3 47 -16z m-367 -54 c28 -9 31 -15 37 -71 6 -49 4 -63 -10
-79 -16 -17 -16 -19 0 -25 45 -17 65 -163 28 -197 -25 -23 -231 -55 -241 -38
-4 7 -15 76 -25 154 -9 78 -22 163 -28 189 -7 26 -9 50 -6 53 21 21 197 31
245 14z m-263 -117 c-6 -9 -19 -18 -28 -20 -23 -5 -22 45 2 51 25 5 39 -10 26
-31z m1046 -42 c0 -5 -4 -10 -10 -10 -5 0 -10 5 -10 10 0 6 5 10 10 10 6 0 10
-4 10 -10z m960 -13 c0 -7 -7 -22 -15 -33 -12 -16 -14 -17 -15 -2 0 23 11 48
21 48 5 0 9 -6 9 -13z m-251 -50 c-2 -1 -12 -9 -21 -16 -15 -12 -18 -11 -18 3
0 10 8 16 22 16 12 0 19 -1 17 -3z m-409 -52 c0 -9 -9 -15 -25 -15 -16 0 -25
6 -25 15 0 9 9 15 25 15 16 0 25 -6 25 -15z m-1002 -148 c2 -10 -3 -17 -12
-17 -9 0 -16 2 -16 4 0 2 -3 12 -6 21 -5 13 -2 16 12 13 10 -2 20 -11 22 -21z"/>
<path d="M2160 1278 c0 -16 6 -25 15 -25 10 0 15 8 13 20 -4 30 -28 34 -28 5z"/>
<path d="M1843 1215 c7 -43 13 -53 27 -39 12 12 -2 66 -20 72 -10 4 -12 -4 -7
-33z"/>
<path d="M911 1103 c1 -10 4 -29 9 -43 6 -21 8 -22 14 -8 4 9 6 27 4 39 -4 27
-28 38 -27 12z"/>
<path d="M936 918 c7 -53 20 -82 33 -73 14 8 -11 125 -26 125 -11 0 -12 -11
-7 -52z"/>
<path d="M240 996 c0 -36 13 -55 25 -36 9 14 -4 70 -16 70 -5 0 -9 -15 -9 -34z"/>
<path d="M260 868 c0 -42 14 -88 26 -88 16 0 18 37 4 74 -10 27 -30 36 -30 14z"/>
<path d="M490 1386 c0 -9 -8 -16 -20 -16 -16 0 -19 -4 -12 -17 5 -10 7 -24 5
-30 -3 -8 4 -13 19 -13 13 0 29 -5 36 -12 9 -9 12 -6 12 13 0 14 4 29 9 35 5
5 -3 18 -20 32 -23 19 -29 20 -29 8z"/>
<path d="M627 1315 c-19 -39 -21 -55 -9 -55 14 0 44 72 34 82 -4 4 -16 -7 -25
-27z"/>
<path d="M2143 778 c-11 -40 -23 -81 -28 -90 -4 -11 -3 -18 4 -18 16 0 43 66
44 107 1 18 5 33 9 33 4 0 8 9 8 20 0 42 -18 17 -37 -52z"/>
<path d="M1802 751 c-12 -27 -22 -51 -22 -54 0 -15 -116 -136 -175 -184 -22
-17 -37 -34 -33 -38 12 -12 133 93 178 153 55 74 105 172 88 172 -7 0 -23 -22
-36 -49z"/>
<path d="M1930 736 c0 -13 -8 -27 -17 -32 -15 -6 -12 -8 12 -13 25 -5 30 -11
27 -31 l-2 -25 16 23 c9 12 25 22 35 22 21 0 25 15 8 26 -6 3 -9 17 -6 30 4
20 2 22 -16 13 -13 -8 -22 -8 -30 0 -17 17 -27 13 -27 -13z"/>
<path d="M2081 613 c-68 -140 -186 -279 -306 -360 -70 -47 -183 -105 -237
-123 -44 -13 -53 -36 -10 -26 58 14 212 97 291 157 46 34 107 91 137 127 89
104 173 247 157 263 -5 5 -19 -11 -32 -38z"/>
<path d="M690 642 c0 -15 128 -134 140 -130 6 2 -20 34 -59 71 -70 66 -81 74
-81 59z"/>
<path d="M360 589 c0 -23 109 -175 167 -233 99 -100 237 -196 281 -196 11 0
22 -5 24 -10 5 -16 136 -61 143 -50 4 6 0 12 -7 14 -220 69 -421 217 -538 399
-52 82 -70 101 -70 76z"/>
<path d="M620 575 c-7 -8 -24 -15 -38 -15 -24 0 -24 -1 -8 -19 14 -15 15 -24
7 -40 -11 -19 -10 -20 12 -12 18 7 29 5 42 -7 17 -16 17 -16 11 9 -5 23 -2 28
22 34 l27 7 -27 10 c-25 9 -33 19 -29 41 2 11 -5 8 -19 -8z"/>
<path d="M1775 541 c-10 -17 31 -33 44 -17 6 7 8 16 4 19 -10 10 -41 8 -48 -2z"/>
<path d="M1768 508 c-10 -26 4 -38 42 -38 21 0 41 -4 44 -9 3 -5 -2 -8 -12 -7
-23 1 -22 -28 1 -32 18 -4 57 23 57 40 0 4 -9 17 -21 29 -15 15 -27 19 -50 14
-17 -4 -36 -2 -43 4 -10 9 -15 8 -18 -1z"/>
<path d="M850 498 c0 -19 103 -72 185 -96 103 -30 135 -35 135 -23 0 10 -14
15 -34 12 -16 -3 -220 71 -234 85 -24 25 -52 36 -52 22z"/>
<path d="M1691 456 l-22 -23 28 -24 c15 -13 34 -37 41 -52 13 -30 35 -32 40
-4 2 11 -2 14 -17 10 -12 -3 -21 -1 -21 6 0 6 5 11 11 11 5 0 7 5 4 10 -3 6
-2 10 4 10 6 0 15 -9 21 -20 10 -18 45 -18 38 0 -7 20 -81 100 -92 100 -7 0
-23 -11 -35 -24z"/>
<path d="M1473 441 c-23 -9 -45 -20 -49 -24 -4 -4 -20 -7 -34 -7 -15 0 -33 -7
-40 -15 -10 -12 -10 -15 3 -15 9 0 19 5 22 10 3 6 18 10 33 10 26 0 132 44
132 55 0 8 -22 4 -67 -14z"/>
<path d="M787 383 c-52 -82 -52 -81 -12 -100 34 -16 36 -16 50 3 8 10 15 26
15 35 0 9 7 22 15 29 21 18 19 36 -7 54 -31 22 -35 21 -61 -21z m53 -7 c0 -3
-4 -8 -10 -11 -5 -3 -10 -1 -10 4 0 6 5 11 10 11 6 0 10 -2 10 -4z m-36 -61
c-6 -16 -24 -21 -24 -7 0 11 11 22 21 22 5 0 6 -7 3 -15z"/>
<path d="M1608 404 c-7 -6 61 -124 71 -124 4 0 17 7 29 16 27 18 21 34 -9 27
-19 -5 -21 -3 -17 20 4 22 1 27 -14 27 -11 0 -22 9 -25 20 -5 19 -23 26 -35
14z"/>
<path d="M1253 393 c-29 -2 -53 -8 -53 -14 0 -10 89 -13 114 -3 15 6 13 26 -2
22 -4 -1 -31 -3 -59 -5z"/>
<path d="M1543 370 c-19 -8 -21 -14 -16 -47 7 -46 32 -93 50 -93 7 0 23 6 36
13 12 6 23 13 25 14 2 0 -4 15 -13 32 -16 32 -29 39 -40 21 -11 -17 -23 -11
-29 15 -4 14 -11 23 -16 20 -6 -3 -10 -1 -10 4 0 15 10 14 29 -3 23 -21 50 -4
32 18 -15 18 -17 18 -48 6z m51 -96 c3 -8 2 -12 -4 -9 -6 3 -10 10 -10 16 0
14 7 11 14 -7z"/>
<path d="M910 353 c-23 -9 -30 -26 -24 -56 5 -23 2 -29 -15 -34 -29 -8 -21
-26 11 -27 22 -1 25 1 15 12 -9 11 -7 17 8 29 11 7 19 23 17 33 -2 13 2 20 12
20 9 0 16 7 16 15 0 15 -13 18 -40 8z"/>
<path d="M980 327 c0 -8 -5 -17 -11 -19 -8 -3 -7 -14 5 -35 16 -32 22 -73 9
-59 -5 4 -8 13 -8 19 0 17 -25 20 -31 3 -17 -44 58 -64 78 -21 10 22 8 30 -10
55 -13 17 -18 31 -12 35 6 3 10 1 10 -4 0 -13 26 -15 34 -3 8 14 -8 30 -37 37
-20 6 -27 4 -27 -8z"/>
<path d="M1442 333 c-33 -6 -35 -20 -13 -82 l19 -54 15 29 15 29 13 -28 c12
-27 24 -34 33 -19 10 17 -36 72 -60 72 -16 0 -22 4 -18 14 3 7 13 13 22 12 9
0 17 5 17 13 0 17 -11 20 -43 14z"/>
<path d="M1060 301 c0 -5 9 -13 20 -16 13 -4 20 -16 21 -33 2 -25 2 -25 6 -4
3 13 11 26 19 29 31 12 14 33 -26 33 -22 0 -40 -4 -40 -9z"/>
<path d="M1308 305 c-6 -6 10 -113 19 -127 14 -24 24 14 17 71 -6 55 -18 74
-36 56z"/>
<path d="M1360 296 c0 -8 6 -16 14 -19 12 -5 13 -11 3 -36 -10 -26 -9 -34 6
-48 16 -16 17 -15 17 19 0 56 -11 98 -26 98 -8 0 -14 -6 -14 -14z"/>
<path d="M1201 230 l2 -71 41 3 c39 3 41 5 39 33 -8 108 -5 100 -46 103 l-38
3 2 -71z m49 30 c0 -5 -2 -10 -4 -10 -3 0 -8 5 -11 10 -3 6 -1 10 4 10 6 0 11
-4 11 -10z m-3 -72 c-3 -7 -5 -2 -5 12 0 14 2 19 5 13 2 -7 2 -19 0 -25z"/>
<path d="M1066 185 c-4 -10 1 -15 14 -15 11 0 20 7 20 15 0 8 -6 15 -14 15 -8
0 -16 -7 -20 -15z"/>
<path d="M1001 95 c40 -41 393 -46 459 -5 28 18 3 19 -66 5 -107 -23 -293 -18
-387 11 -20 6 -21 5 -6 -11z"/>
<path d="M1095 10 c-4 -6 7 -10 27 -9 27 0 30 2 13 9 -27 12 -33 12 -40 0z"/>
<path d="M1325 10 c-3 -5 3 -10 14 -10 12 0 21 5 21 10 0 6 -6 10 -14 10 -8 0
-18 -4 -21 -10z"/>
</g>
</svg>
