<?xml version="1.0" standalone="no"?>
<!DOCTYPE svg PUBLIC "-//W3C//DTD SVG 20010904//EN"
 "http://www.w3.org/TR/2001/REC-SVG-20010904/DTD/svg10.dtd">
<svg version="1.0" xmlns="http://www.w3.org/2000/svg"
 width="512.000000pt" height="512.000000pt" viewBox="0 0 512.000000 512.000000"
 preserveAspectRatio="xMidYMid meet">

<g transform="translate(0.000000,512.000000) scale(0.100000,-0.100000)"
fill="#000000" stroke="none">
<path d="M2513 5066 c-274 -67 -547 -395 -719 -865 l-38 -103 -41 6 c-22 3
-80 13 -130 21 -49 9 -175 18 -280 22 -276 8 -417 -14 -580 -92 -175 -84 -276
-200 -321 -370 -21 -77 -18 -247 6 -341 59 -229 203 -485 408 -721 l54 -63
-55 -62 c-57 -67 -165 -210 -193 -257 -16 -27 -22 -29 -88 -33 -124 -6 -222
-72 -278 -186 -29 -59 -33 -76 -33 -147 1 -103 31 -173 108 -248 53 -51 55
-54 60 -117 14 -189 130 -347 322 -440 172 -83 309 -106 590 -97 105 4 231 13
280 22 50 8 108 18 130 21 l41 6 38 -103 c111 -305 280 -573 454 -721 200
-171 438 -204 653 -92 226 119 447 422 585 804 21 58 39 107 40 109 2 2 63 -7
136 -20 109 -19 173 -24 358 -25 l226 -3 39 -37 c84 -79 205 -110 311 -80 145
42 242 155 252 298 2 37 0 87 -7 112 -10 40 -8 50 15 100 40 87 52 211 31 332
-9 55 -26 128 -37 164 -57 174 -188 398 -349 596 -45 54 -81 101 -81 104 0 3
36 49 80 104 113 138 212 290 275 420 139 287 160 512 64 705 -94 190 -276
305 -550 347 -140 21 -455 14 -619 -15 -63 -11 -122 -21 -131 -21 -10 0 -21
19 -33 58 -10 31 -29 81 -42 110 l-23 53 34 45 c164 215 3 537 -269 536 -39 0
-82 -5 -96 -10 -21 -8 -33 -3 -85 39 -158 128 -341 176 -512 135z m201 -221
c59 -15 118 -47 169 -89 l29 -23 -19 -34 c-14 -27 -18 -56 -18 -134 0 -89 3
-105 27 -151 55 -104 180 -184 286 -184 l48 0 33 -89 c33 -88 34 -111 4 -111
-27 0 -364 -117 -502 -174 -125 -52 -135 -54 -161 -41 -74 38 -376 150 -543
200 -101 30 -97 12 -36 168 148 372 351 620 546 666 56 13 73 13 137 -4z
m-1319 -925 c103 -10 285 -37 292 -44 2 -1 -9 -50 -23 -107 -29 -116 -81 -414
-90 -518 l-7 -68 -107 -81 c-111 -84 -329 -272 -389 -336 -19 -20 -40 -36 -47
-36 -28 0 -245 302 -310 432 -19 38 -49 110 -66 161 -28 80 -32 106 -33 197 0
93 3 111 26 160 91 191 358 276 754 240z m2913 -15 c168 -34 298 -125 341
-238 60 -162 -2 -402 -172 -661 -71 -109 -205 -278 -217 -274 -4 2 -64 53
-132 115 -67 61 -172 151 -233 198 -60 48 -125 99 -143 113 -32 26 -34 31 -48
137 -18 139 -60 372 -89 492 l-22 91 62 11 c67 12 195 29 265 35 85 7 310 -4
388 -19z m-2216 -135 c84 -27 180 -60 212 -73 69 -29 78 -19 -99 -112 -60 -32
-168 -94 -240 -138 -71 -43 -134 -82 -139 -84 -11 -7 -2 57 35 237 38 188 47
220 64 220 7 0 83 -22 167 -50z m1305 -50 c23 -92 73 -360 68 -360 -1 0 -74
43 -161 96 -88 53 -210 123 -273 157 l-114 60 79 30 c121 46 347 117 364 114
10 -1 22 -34 37 -97z m-578 -254 c323 -163 675 -383 687 -429 11 -47 19 -496
12 -722 l-8 -240 -32 -28 c-41 -34 -276 -184 -418 -265 -132 -75 -401 -212
-418 -212 -7 0 -72 30 -145 66 -215 108 -440 239 -629 365 l-86 58 -9 68 c-10
88 -10 755 0 855 l9 78 126 83 c70 46 179 115 242 152 138 82 469 254 489 255
8 0 89 -38 180 -84z m-1284 -910 l0 -313 -70 57 c-39 32 -119 101 -178 155
l-108 98 33 35 c38 39 310 281 318 282 3 0 5 -141 5 -314z m2307 240 c48 -40
127 -110 175 -155 l87 -82 -45 -45 c-41 -42 -261 -234 -298 -260 -15 -11 -16
13 -16 302 0 173 2 314 5 314 3 0 44 -33 92 -74z m-2771 -442 c60 -64 278
-252 389 -336 l107 -81 7 -68 c9 -104 61 -402 90 -518 14 -57 25 -106 23 -107
-9 -9 -199 -36 -323 -45 -297 -24 -536 28 -652 141 -46 44 -77 99 -91 159 -9
39 -8 41 18 47 48 12 141 67 173 103 43 48 78 130 85 195 7 70 -11 142 -53
212 l-34 56 47 67 c58 82 163 211 172 211 4 0 23 -16 42 -36z m3284 -79 c199
-255 315 -509 315 -689 0 -95 -4 -99 -65 -80 -113 35 -263 -10 -344 -102 -41
-47 -81 -135 -81 -179 0 -21 -6 -25 -47 -31 -65 -10 -273 4 -411 26 -64 11
-120 20 -124 20 -3 0 0 24 8 53 22 84 72 342 89 467 8 63 18 129 20 146 4 25
32 51 158 151 83 67 204 169 267 227 133 121 113 121 215 -9z m-2390 -602 c72
-44 171 -101 220 -128 50 -26 110 -59 134 -73 l44 -25 -59 -24 c-101 -41 -373
-126 -387 -120 -13 5 -50 153 -82 326 -16 91 -19 135 -7 128 4 -3 66 -41 137
-84z m1505 83 c0 -3 -11 -67 -25 -143 -40 -216 -65 -313 -80 -313 -23 0 -232
66 -344 108 l-104 39 109 58 c106 57 339 194 399 234 29 20 45 26 45 17z
m-537 -555 c73 -27 186 -66 252 -86 65 -20 121 -38 123 -40 6 -6 -87 -232
-133 -325 -134 -268 -315 -449 -479 -480 -121 -23 -229 22 -357 149 -120 120
-229 303 -325 545 l-43 111 92 28 c136 42 337 114 466 167 l114 47 79 -34 c44
-18 139 -55 211 -82z"/>
<path d="M2527 3030 c-72 -18 -149 -62 -212 -121 -206 -193 -206 -505 0 -698
106 -98 216 -138 360 -128 369 24 570 439 362 749 -50 74 -140 146 -224 178
-66 25 -221 36 -286 20z"/>
</g>
</svg>
