<?xml version="1.0" standalone="no"?>
<!DOCTYPE svg PUBLIC "-//W3C//DTD SVG 20010904//EN"
 "http://www.w3.org/TR/2001/REC-SVG-20010904/DTD/svg10.dtd">
<svg version="1.0" xmlns="http://www.w3.org/2000/svg"
 width="512.000000pt" height="512.000000pt" viewBox="0 0 512.000000 512.000000"
 preserveAspectRatio="xMidYMid meet">

<g transform="translate(0.000000,512.000000) scale(0.100000,-0.100000)"
fill="#000000" stroke="none">
<path d="M2523 5108 c-12 -6 -25 -18 -30 -27 -4 -9 -10 -205 -13 -436 l-5
-420 -59 -7 c-216 -27 -438 -141 -598 -306 -168 -173 -252 -350 -293 -614 -5
-31 -11 -38 -41 -48 -47 -16 -100 -64 -126 -114 -58 -112 6 -266 126 -306 l36
-12 0 -234 0 -234 -289 0 -289 0 -53 -28 c-94 -49 -142 -167 -109 -267 17 -51
88 -121 139 -136 41 -12 41 -13 41 -61 l0 -48 -110 0 c-121 0 -154 -10 -168
-50 -11 -32 7 -84 33 -94 9 -3 68 -6 131 -6 l114 0 0 -75 0 -75 -370 0 c-306
0 -376 3 -399 15 -48 24 -55 72 -16 110 23 24 30 25 138 25 106 0 115 2 135
23 31 33 29 80 -4 106 -23 18 -41 21 -137 21 -138 0 -180 -12 -237 -70 -70
-70 -88 -155 -49 -240 33 -73 83 -115 154 -130 l30 -6 3 -461 2 -460 -38 -7
c-86 -13 -172 -117 -172 -206 0 -95 71 -196 155 -219 29 -8 572 -11 1906 -11
l1866 0 27 21 c36 28 36 80 0 108 l-27 21 -1864 0 -1864 0 -24 25 c-42 41 -29
95 26 114 45 16 4673 16 4718 0 55 -19 68 -73 26 -114 l-24 -25 -341 0 c-199
0 -349 -4 -359 -10 -10 -5 -24 -22 -30 -39 -10 -24 -10 -34 3 -59 8 -16 23
-32 31 -36 30 -11 697 -7 740 5 84 23 155 124 155 219 0 89 -86 193 -172 206
l-38 7 2 460 3 461 30 6 c71 15 121 57 154 130 39 85 21 170 -49 240 -27 27
-61 50 -86 58 -29 8 -151 12 -423 12 l-381 0 0 48 c0 48 0 49 41 61 51 15 122
85 139 136 33 100 -15 218 -109 267 l-53 28 -289 0 -289 0 0 234 0 234 36 12
c20 7 51 26 70 43 126 110 93 308 -61 373 -47 19 -55 29 -55 70 0 17 -11 76
-25 130 -27 109 -124 315 -159 340 -50 35 -116 2 -116 -57 0 -18 15 -56 34
-88 60 -99 109 -241 118 -341 l3 -35 -875 -3 c-481 -1 -880 0 -886 2 -22 8 17
183 65 289 110 245 328 426 601 498 112 30 290 32 403 6 95 -23 192 -62 272
-111 33 -20 72 -36 88 -36 38 0 67 32 67 75 0 30 -7 40 -42 66 -104 76 -305
152 -436 165 l-62 7 0 63 0 64 245 0 c262 0 291 4 344 53 52 48 61 88 61 272
0 184 -9 224 -61 272 -53 49 -82 53 -344 53 -189 0 -245 3 -245 13 0 38 -22
85 -46 95 -30 14 -42 14 -71 0z m605 -270 c8 -8 12 -59 12 -165 0 -140 -2
-153 -19 -163 -12 -6 -110 -10 -250 -10 l-231 0 0 175 0 175 238 0 c172 0 241
-3 250 -12z m487 -1748 c26 -29 24 -79 -4 -102 -22 -17 -67 -18 -1051 -18
-984 0 -1029 1 -1051 18 -28 23 -30 73 -4 102 18 20 29 20 1055 20 1026 0
1037 0 1055 -20z m-165 -505 l0 -235 -890 0 -890 0 0 235 0 235 890 0 890 0 0
-235z m727 -407 c29 -27 30 -71 3 -98 -20 -20 -33 -20 -1620 -20 -1587 0
-1600 0 -1620 20 -26 26 -25 68 2 97 l21 23 1596 0 1595 0 23 -22z m-169
-1000 l2 -728 -1450 0 -1450 0 0 723 c0 398 3 727 7 730 3 4 655 6 1447 5
l1441 -3 3 -727z m937 457 c39 -38 32 -86 -16 -110 -23 -12 -93 -15 -399 -15
l-370 0 0 75 0 75 380 0 381 0 24 -25z m-3985 -730 l0 -455 -300 0 -300 0 0
455 0 455 300 0 300 0 0 -455z m3800 0 l0 -455 -300 0 -300 0 0 455 0 455 300
0 300 0 0 -455z"/>
<path d="M1995 2720 c-34 -13 -46 -35 -52 -93 -12 -116 18 -187 77 -187 60 0
89 71 77 188 -8 75 -50 113 -102 92z"/>
<path d="M2355 2720 c-34 -13 -46 -35 -52 -93 -12 -116 18 -187 77 -187 60 0
89 71 77 188 -8 75 -50 113 -102 92z"/>
<path d="M2715 2720 c-34 -13 -46 -35 -52 -93 -12 -116 18 -187 77 -187 60 0
89 71 77 188 -8 75 -50 113 -102 92z"/>
<path d="M3075 2720 c-34 -13 -46 -35 -52 -93 -12 -116 18 -187 77 -187 60 0
89 71 77 188 -8 75 -50 113 -102 92z"/>
<path d="M1424 1729 c-18 -20 -19 -44 -19 -570 l0 -548 22 -22 c29 -29 77 -29
106 0 l22 22 0 548 c0 526 -1 550 -19 570 -13 14 -31 21 -56 21 -25 0 -43 -7
-56 -21z"/>
<path d="M1784 1729 c-18 -20 -19 -44 -19 -570 l0 -548 22 -22 c29 -29 77 -29
106 0 l22 22 0 548 c0 526 -1 550 -19 570 -13 14 -31 21 -56 21 -25 0 -43 -7
-56 -21z"/>
<path d="M2144 1729 c-18 -20 -19 -44 -19 -570 l0 -548 22 -22 c29 -29 77 -29
106 0 l22 22 0 548 c0 526 -1 550 -19 570 -13 14 -31 21 -56 21 -25 0 -43 -7
-56 -21z"/>
<path d="M2504 1729 c-18 -20 -19 -44 -19 -570 l0 -548 22 -22 c29 -29 77 -29
106 0 l22 22 0 548 c0 526 -1 550 -19 570 -13 14 -31 21 -56 21 -25 0 -43 -7
-56 -21z"/>
<path d="M2864 1729 c-18 -20 -19 -44 -19 -570 l0 -548 22 -22 c29 -29 77 -29
106 0 l22 22 0 548 c0 526 -1 550 -19 570 -13 14 -31 21 -56 21 -25 0 -43 -7
-56 -21z"/>
<path d="M3224 1729 c-18 -20 -19 -44 -19 -570 l0 -548 22 -22 c29 -29 77 -29
106 0 l22 22 0 548 c0 526 -1 550 -19 570 -13 14 -31 21 -56 21 -25 0 -43 -7
-56 -21z"/>
<path d="M3584 1729 c-18 -20 -19 -44 -19 -570 l0 -548 22 -22 c29 -29 77 -29
106 0 l22 22 0 548 c0 526 -1 550 -19 570 -13 14 -31 21 -56 21 -25 0 -43 -7
-56 -21z"/>
<path d="M532 1153 c-21 -8 -43 -61 -36 -88 12 -46 38 -55 167 -55 112 0 119
1 142 25 14 13 25 36 25 50 0 14 -11 37 -25 50 -23 24 -30 25 -142 24 -65 0
-124 -3 -131 -6z"/>
<path d="M532 793 c-21 -8 -43 -61 -36 -88 12 -46 38 -55 167 -55 112 0 119 1
142 25 14 13 25 36 25 50 0 14 -11 37 -25 50 -23 24 -30 25 -142 24 -65 0
-124 -3 -131 -6z"/>
<path d="M4325 1135 c-14 -13 -25 -36 -25 -50 0 -14 11 -37 25 -50 23 -24 30
-25 145 -25 116 0 122 1 147 26 20 20 24 31 19 57 -11 58 -34 67 -168 67 -113
0 -120 -1 -143 -25z"/>
<path d="M4325 775 c-14 -13 -25 -36 -25 -50 0 -14 11 -37 25 -50 23 -24 30
-25 145 -25 116 0 122 1 147 26 20 20 24 31 19 57 -11 58 -34 67 -168 67 -113
0 -120 -1 -143 -25z"/>
</g>
</svg>
