<?xml version="1.0" standalone="no"?>
<!DOCTYPE svg PUBLIC "-//W3C//DTD SVG 20010904//EN"
 "http://www.w3.org/TR/2001/REC-SVG-20010904/DTD/svg10.dtd">
<svg version="1.0" xmlns="http://www.w3.org/2000/svg"
 width="512.000000pt" height="512.000000pt" viewBox="0 0 512.000000 512.000000"
 preserveAspectRatio="xMidYMid meet">

<g transform="translate(0.000000,512.000000) scale(0.100000,-0.100000)"
fill="#000000" stroke="none">
<path d="M2473 4952 c-12 -9 -27 -30 -32 -45 -14 -37 -14 -375 0 -415 21 -62
95 -81 146 -38 l28 24 0 222 0 222 -28 24 c-33 28 -82 31 -114 6z"/>
<path d="M1113 4392 c-29 -23 -42 -60 -32 -95 8 -28 253 -291 293 -314 54 -31
136 12 136 72 0 45 -24 76 -167 218 -125 123 -143 137 -174 137 -19 0 -44 -8
-56 -18z"/>
<path d="M3703 4257 c-143 -143 -153 -156 -153 -191 0 -51 44 -96 93 -96 40 0
58 15 226 192 103 108 111 119 111 156 0 53 -38 92 -89 92 -33 0 -48 -12 -188
-153z"/>
<path d="M2295 4304 c-776 -139 -1279 -904 -1093 -1664 73 -300 245 -561 503
-765 112 -89 128 -121 135 -275 8 -157 33 -205 130 -249 43 -20 64 -21 596
-21 542 0 552 0 578 -21 34 -27 37 -86 5 -115 -20 -18 -47 -19 -533 -24 -573
-6 -545 -2 -631 -81 -55 -51 -80 -96 -93 -167 -20 -109 26 -227 112 -293 82
-62 81 -62 537 -68 385 -6 418 -7 437 -24 39 -35 36 -91 -7 -124 -12 -9 -106
-12 -364 -13 -373 0 -397 -3 -431 -51 -23 -33 -21 -100 4 -132 12 -15 38 -31
58 -37 22 -6 173 -10 372 -10 373 0 418 5 496 62 82 59 123 141 124 249 0 113
-64 214 -173 271 -41 21 -57 22 -467 30 -464 9 -462 9 -475 69 -8 37 18 80 56
90 13 4 242 7 509 8 l485 1 60 28 c111 53 170 147 170 272 0 120 -59 218 -162
270 l-48 25 -557 3 -558 2 0 48 c-1 95 -20 187 -55 258 -36 74 -80 120 -227
241 -169 140 -307 359 -364 580 -35 133 -43 338 -20 472 41 234 149 444 316
612 124 124 272 218 431 273 549 188 1142 -53 1398 -569 91 -183 128 -361 118
-570 -15 -330 -169 -625 -439 -841 -50 -40 -70 -64 -78 -92 -22 -71 32 -142
108 -142 40 0 111 50 216 150 119 114 205 231 276 375 105 214 142 369 144
605 1 172 -14 265 -66 430 -152 478 -572 841 -1067 924 -117 20 -355 20 -466
0z"/>
<path d="M570 3039 c-61 -24 -78 -96 -36 -146 l24 -28 222 0 222 0 24 28 c43
51 24 125 -38 146 -39 14 -384 13 -418 0z"/>
<path d="M4075 3043 c-56 -14 -87 -81 -61 -131 25 -49 52 -53 280 -50 l208 3
24 28 c43 51 24 125 -38 146 -30 11 -372 14 -413 4z"/>
</g>
</svg>
