<?xml version="1.0" standalone="no"?>
<!DOCTYPE svg PUBLIC "-//W3C//DTD SVG 20010904//EN"
 "http://www.w3.org/TR/2001/REC-SVG-20010904/DTD/svg10.dtd">
<svg version="1.0" xmlns="http://www.w3.org/2000/svg"
 width="512.000000pt" height="512.000000pt" viewBox="0 0 512.000000 512.000000"
 preserveAspectRatio="xMidYMid meet">

<g transform="translate(0.000000,512.000000) scale(0.100000,-0.100000)"
fill="#000000" stroke="none">
<path d="M675 5066 c-82 -20 -146 -56 -206 -115 -135 -136 -164 -331 -74 -499
22 -41 29 -64 22 -67 -7 -2 -25 -6 -42 -10 -65 -14 -161 -71 -220 -130 -70
-70 -118 -155 -140 -246 -20 -88 -20 -310 0 -370 37 -107 129 -169 252 -169
l73 0 0 -186 0 -186 29 -29 29 -29 370 0 c349 0 371 1 393 19 23 19 24 24 29
213 l5 193 85 5 c95 7 127 20 182 77 53 55 70 103 76 213 11 221 -33 365 -150
486 -64 66 -165 127 -234 140 -19 3 -37 10 -39 15 -3 4 5 25 19 46 43 68 59
135 54 238 -3 79 -8 101 -37 158 -61 125 -174 211 -310 237 -67 12 -102 12
-166 -4z m199 -184 c91 -41 145 -126 146 -230 0 -75 -15 -116 -67 -172 -76
-85 -194 -106 -299 -55 -83 41 -144 137 -144 228 0 47 30 124 64 164 75 86
193 112 300 65z m-194 -787 l0 -125 85 0 85 0 0 126 0 126 138 -4 c156 -4 191
-16 270 -92 84 -79 119 -196 110 -363 -4 -70 -8 -87 -28 -108 -20 -22 -32 -25
-87 -25 l-63 0 0 125 0 125 -85 0 -85 0 0 -340 0 -340 -255 0 -255 0 0 340 0
340 -85 0 -85 0 0 -125 0 -125 -54 0 c-69 0 -83 6 -101 41 -18 34 -20 212 -4
287 23 108 118 215 219 247 27 8 91 14 163 14 l117 1 0 -125z"/>
<path d="M680 3715 l0 -85 85 0 85 0 0 85 0 85 -85 0 -85 0 0 -85z"/>
<path d="M4271 5069 c-126 -24 -244 -117 -302 -235 -29 -58 -34 -80 -37 -159
-5 -103 11 -170 54 -238 14 -21 22 -42 19 -46 -2 -5 -20 -12 -39 -15 -69 -13
-170 -74 -234 -140 -116 -121 -160 -262 -150 -480 6 -116 22 -163 76 -219 55
-57 87 -70 182 -77 l85 -5 5 -193 c5 -189 6 -194 29 -213 22 -18 44 -19 393
-19 l370 0 29 29 29 29 0 186 0 186 73 0 c123 0 215 62 252 169 20 60 20 282
0 370 -21 88 -70 175 -135 241 -76 78 -124 103 -267 145 -7 3 1 26 22 67 90
168 61 363 -74 499 -103 102 -242 145 -380 118z m195 -191 c91 -42 154 -158
140 -256 -8 -57 -52 -138 -91 -168 -76 -58 -186 -72 -267 -36 -49 21 -113 88
-134 138 -18 44 -18 145 1 190 58 138 214 197 351 132z m-196 -783 l0 -125 85
0 85 0 0 126 0 126 133 -4 c116 -3 138 -6 182 -27 67 -33 131 -100 163 -169
22 -49 27 -74 30 -179 7 -187 -7 -213 -108 -213 l-60 0 0 125 0 125 -85 0 -85
0 0 -340 0 -340 -255 0 -255 0 0 340 0 340 -85 0 -85 0 0 -125 0 -125 -63 0
c-55 0 -67 3 -87 25 -20 21 -24 38 -28 108 -5 100 11 214 39 270 39 79 126
152 209 178 14 4 80 8 148 8 l122 1 0 -125z"/>
<path d="M4270 3715 l0 -85 85 0 85 0 0 85 0 85 -85 0 -85 0 0 -85z"/>
<path d="M2375 4644 c-107 -11 -252 -38 -352 -64 -171 -44 -433 -148 -433
-170 0 -6 16 -42 35 -80 l35 -69 84 40 c239 112 545 179 816 179 270 0 593
-71 818 -179 l82 -40 36 70 c19 39 33 76 31 83 -6 13 -150 78 -265 118 -107
37 -251 73 -372 93 -92 16 -429 28 -515 19z"/>
<path d="M2355 3694 c-391 -69 -734 -340 -891 -703 -60 -139 -86 -257 -91
-423 -6 -172 6 -272 49 -408 211 -664 938 -1008 1585 -750 320 128 575 401
687 735 99 295 67 665 -80 934 -181 330 -491 553 -858 616 -109 18 -294 18
-401 -1z m376 -169 c213 -37 399 -133 550 -284 118 -118 201 -254 253 -415 26
-78 44 -176 33 -176 -4 0 -36 11 -73 25 -36 14 -76 25 -88 25 -20 0 -261 -93
-297 -115 -10 -6 -78 -112 -153 -237 -152 -253 -153 -257 -107 -348 l28 -54
-142 -108 c-79 -59 -150 -117 -159 -130 -12 -17 -16 -47 -16 -121 l0 -98 -62
6 c-277 28 -486 124 -660 301 -92 94 -141 163 -194 269 -69 141 -95 245 -101
406 -6 133 12 299 36 338 6 10 32 0 112 -39 57 -29 105 -54 107 -55 2 -1 20
-107 42 -234 21 -127 41 -240 45 -251 7 -23 352 -287 397 -304 22 -8 35 -7 56
4 16 9 122 148 252 330 l225 314 0 203 c0 172 -2 205 -16 218 -9 9 -108 71
-220 139 l-204 122 -57 109 c-32 61 -57 115 -58 122 0 10 82 33 170 46 62 10
225 6 301 -8z m-557 -250 l71 -140 200 -120 200 -120 3 -128 3 -129 -182 -254
c-99 -140 -183 -254 -185 -254 -8 0 -244 180 -244 186 0 34 -83 490 -92 504
-7 10 -76 51 -155 90 l-142 72 19 38 c34 67 139 197 204 255 77 67 196 147
214 143 8 -2 46 -66 86 -143z m1327 -786 l81 -31 -7 -57 c-42 -353 -264 -660
-588 -811 -68 -32 -218 -80 -249 -80 -4 0 -8 25 -8 55 l0 55 160 120 c87 66
164 129 170 139 17 33 11 66 -26 138 l-35 69 108 181 108 181 85 35 c47 19 93
36 103 36 10 1 54 -13 98 -30z"/>
<path d="M455 2858 c-13 -37 -25 -201 -25 -336 0 -149 15 -340 29 -354 6 -7
147 15 157 25 3 3 0 52 -7 109 -11 98 -7 401 7 504 l6 41 -71 11 c-87 15 -91
15 -96 0z"/>
<path d="M4562 2857 l-64 -10 6 -41 c14 -108 18 -390 6 -496 -6 -61 -10 -113
-8 -116 7 -6 152 -32 159 -28 4 2 12 56 19 121 13 119 8 456 -8 538 -8 46 -14
48 -110 32z"/>
<path d="M666 2079 c-109 -26 -235 -130 -282 -234 -58 -126 -55 -251 9 -377
l34 -66 -44 -12 c-111 -27 -236 -118 -298 -215 -18 -27 -43 -79 -56 -115 -22
-59 -24 -81 -24 -235 0 -155 2 -174 21 -210 51 -94 137 -145 247 -145 l67 0 0
-184 c0 -181 1 -185 24 -213 l24 -28 366 -3 c316 -2 370 -1 396 13 16 8 31 17
32 18 1 1 4 90 7 197 l6 195 80 6 c93 7 146 30 195 85 48 55 62 98 68 209 6
125 -10 244 -43 328 -54 134 -180 248 -321 289 -66 20 -72 24 -59 38 8 8 27
42 42 75 25 54 28 70 28 170 0 103 -2 114 -32 178 -36 76 -116 163 -181 196
-90 46 -212 62 -306 40z m185 -174 c102 -35 169 -130 169 -239 -1 -177 -161
-295 -332 -244 -48 14 -123 78 -147 127 -72 141 5 315 159 362 42 12 104 10
151 -6z m-171 -795 l0 -130 85 0 84 0 3 128 3 127 120 -1 c99 -1 130 -5 178
-23 69 -27 143 -96 176 -163 40 -83 55 -285 27 -353 -18 -43 -42 -55 -110 -55
l-56 0 0 130 0 131 -82 -3 -83 -3 -3 -342 -2 -343 -255 0 -255 0 0 345 0 345
-85 0 -85 0 0 -130 0 -130 -56 0 c-48 0 -59 4 -86 30 l-30 30 4 138 c3 126 6
142 32 199 43 95 133 169 233 192 21 5 84 9 141 10 l102 1 0 -130z"/>
<path d="M680 725 l0 -85 85 0 85 0 0 85 0 85 -85 0 -85 0 0 -85z"/>
<path d="M4240 2075 c-119 -34 -212 -111 -268 -223 -36 -74 -37 -79 -37 -186
0 -101 3 -117 28 -171 15 -33 35 -67 43 -76 13 -14 8 -18 -49 -33 -165 -45
-298 -174 -349 -340 -19 -60 -23 -94 -23 -226 0 -172 6 -196 65 -264 49 -55
102 -78 195 -85 l80 -6 6 -195 c3 -107 6 -196 7 -197 1 -1 16 -10 32 -18 26
-14 80 -15 396 -13 l366 3 24 28 c23 28 24 32 24 211 l0 184 78 4 c116 6 184
47 235 142 20 38 22 55 22 211 0 154 -2 176 -24 235 -61 165 -194 290 -354
330 l-44 12 34 66 c19 37 39 97 45 134 31 180 -73 368 -247 450 -81 38 -198
47 -285 23z m226 -183 c124 -63 176 -220 113 -343 -24 -49 -99 -113 -147 -127
-171 -51 -331 67 -332 244 0 106 66 202 165 239 53 20 149 14 201 -13z m-198
-784 l3 -128 84 0 85 0 0 131 0 131 124 -4 c114 -4 128 -6 188 -36 77 -38 130
-92 167 -171 23 -50 26 -70 29 -193 l4 -138 -30 -30 c-27 -26 -38 -30 -86 -30
l-56 0 0 130 0 130 -85 0 -85 0 0 -345 0 -345 -255 0 -255 0 -2 343 -3 342
-82 3 -83 3 0 -131 0 -130 -58 0 c-106 0 -128 40 -119 214 3 61 13 130 21 154
37 104 127 187 236 216 35 10 92 14 155 13 l100 -2 3 -127z"/>
<path d="M4270 725 l0 -85 85 0 85 0 0 85 0 85 -85 0 -85 0 0 -85z"/>
<path d="M1745 652 c-15 -37 -29 -72 -32 -79 -6 -14 35 -33 176 -79 391 -129
815 -142 1220 -38 93 24 279 90 294 103 4 4 -7 42 -24 83 l-32 76 -51 -20
c-149 -59 -296 -99 -460 -123 -143 -21 -408 -21 -552 0 -102 15 -297 61 -360
86 -16 6 -57 21 -90 34 l-61 23 -28 -66z"/>
</g>
</svg>
