<?xml version="1.0" standalone="no"?>
<!DOCTYPE svg PUBLIC "-//W3C//DTD SVG 20010904//EN"
 "http://www.w3.org/TR/2001/REC-SVG-20010904/DTD/svg10.dtd">
<svg version="1.0" xmlns="http://www.w3.org/2000/svg"
 width="512.000000pt" height="512.000000pt" viewBox="0 0 512.000000 512.000000"
 preserveAspectRatio="xMidYMid meet">

<g transform="translate(0.000000,512.000000) scale(0.100000,-0.100000)"
fill="#000000" stroke="none">
<path d="M1194 5110 c-618 -81 -1108 -574 -1184 -1190 -51 -420 92 -828 398
-1130 208 -205 413 -315 702 -376 119 -26 392 -26 510 -1 563 119 965 521
1087 1087 25 119 25 391 0 510 -88 410 -320 732 -672 933 -244 140 -562 203
-841 167z m406 -184 c244 -53 431 -154 606 -330 56 -55 125 -137 153 -181 315
-483 254 -1094 -150 -1502 -311 -315 -777 -430 -1199 -297 -190 59 -339 151
-486 298 -177 176 -277 361 -331 608 -24 114 -24 350 1 468 110 513 520 887
1046 954 69 8 286 -3 360 -18z"/>
<path d="M1309 4751 c-27 -27 -29 -35 -29 -100 0 -59 4 -74 24 -97 18 -21 32
-28 61 -28 29 0 43 7 61 28 20 23 24 38 24 97 0 65 -2 73 -29 100 -18 17 -40
29 -56 29 -16 0 -38 -12 -56 -29z"/>
<path d="M642 4477 c-35 -37 -29 -85 15 -137 50 -58 92 -75 137 -56 72 30 65
111 -17 181 -50 43 -102 48 -135 12z"/>
<path d="M1943 4448 c-62 -63 -71 -91 -44 -135 39 -62 107 -51 175 29 44 51
48 97 11 133 -41 42 -82 34 -142 -27z"/>
<path d="M1322 4343 c-32 -13 -42 -61 -42 -206 l0 -145 -29 -12 c-39 -16 -95
-73 -117 -119 -82 -171 60 -375 250 -359 88 8 176 66 208 139 12 28 16 29 81
29 59 0 71 3 92 25 25 24 32 65 19 100 -11 27 -60 45 -122 45 -56 0 -60 2 -72
29 -15 38 -73 96 -111 111 l-29 12 0 155 c0 150 -1 155 -25 178 -23 24 -69 32
-103 18z m81 -514 c51 -23 61 -92 21 -133 -55 -54 -144 -14 -144 65 0 26 53
79 79 79 11 0 31 -5 44 -11z"/>
<path d="M369 3811 c-17 -18 -29 -40 -29 -56 0 -16 12 -38 29 -56 27 -27 35
-29 100 -29 59 0 74 4 97 24 21 18 28 32 28 61 0 29 -7 43 -28 61 -23 20 -38
24 -97 24 -65 0 -73 -2 -100 -29z"/>
<path d="M2164 3816 c-21 -18 -28 -32 -28 -61 0 -29 7 -43 28 -61 23 -20 38
-24 97 -24 65 0 73 2 100 29 17 18 29 40 29 56 0 16 -12 38 -29 56 -27 27 -35
29 -100 29 -59 0 -74 -4 -97 -24z"/>
<path d="M745 3232 c-11 -2 -44 -27 -72 -55 -45 -43 -53 -57 -53 -87 0 -48 33
-80 83 -80 29 0 46 8 78 38 58 51 74 91 55 136 -15 35 -54 56 -91 48z"/>
<path d="M1930 3227 c-33 -16 -54 -61 -45 -95 4 -15 29 -48 56 -74 59 -57 103
-64 144 -23 48 47 25 116 -58 176 -44 32 -60 35 -97 16z"/>
<path d="M1334 2980 c-39 -16 -54 -49 -54 -123 0 -62 3 -71 29 -98 18 -17 40
-29 56 -29 16 0 38 12 56 29 27 27 29 35 29 100 0 58 -4 74 -22 95 -26 29 -63
39 -94 26z"/>
<path d="M4548 4150 c-346 -31 -369 -37 -415 -97 -20 -26 -28 -50 -31 -92 -5
-73 10 -104 97 -195 l66 -68 -55 -50 c-304 -274 -725 -593 -1073 -812 -816
-514 -1644 -850 -2645 -1071 -356 -79 -348 -77 -401 -121 -164 -141 -90 -406
122 -442 l42 -8 0 -254 0 -254 -44 -8 c-59 -10 -126 -51 -160 -98 -44 -61 -53
-111 -49 -261 3 -113 7 -140 25 -174 25 -47 74 -95 123 -121 34 -18 113 -19
2410 -19 2297 0 2376 1 2410 19 49 26 98 74 123 121 18 34 22 61 25 177 4 153
-5 200 -54 263 -34 45 -98 83 -155 93 l-44 8 -3 1237 -2 1237 32 0 c52 0 115
37 143 84 23 39 27 67 56 406 17 200 28 378 24 397 -7 41 -59 101 -102 119
-43 18 -92 17 -465 -16z m398 -197 c-3 -32 -15 -170 -26 -308 -11 -137 -23
-265 -26 -283 l-5 -34 -109 106 c-98 96 -112 106 -146 106 -31 0 -48 -10 -111
-67 -176 -159 -298 -264 -458 -392 -875 -703 -1889 -1221 -2985 -1525 -231
-64 -712 -175 -792 -182 -62 -6 -68 -5 -92 19 -33 33 -34 77 -4 111 20 22 60
33 318 90 385 85 619 149 925 250 1099 365 2070 935 2948 1731 83 75 102 110
86 152 -5 15 -53 71 -106 125 -53 54 -95 99 -92 99 7 2 621 56 652 58 l29 1
-6 -57z m-256 -1975 l0 -1298 -340 0 -340 0 0 1069 0 1070 143 114 c147 117
431 361 456 391 13 16 17 14 48 -16 l33 -32 0 -1298z m-850 -293 l0 -1005 -85
0 -85 0 0 948 0 948 82 57 c46 31 84 57 85 57 2 0 3 -452 3 -1005z m-340 -115
l0 -890 -340 0 -340 0 0 690 0 690 23 13 c12 8 74 42 137 77 115 62 384 223
470 279 25 16 46 30 48 30 1 1 2 -399 2 -889z m-852 -242 l-3 -643 -85 0 -85
0 -3 602 -2 602 82 40 c46 21 86 40 91 40 4 1 6 -288 5 -641z m-348 -83 l0
-565 -340 0 -340 0 0 435 c0 290 3 435 10 435 17 0 354 128 515 196 83 35 151
63 153 63 1 1 2 -253 2 -564z m-850 -160 l0 -405 -85 0 -85 0 0 379 0 378 83
26 c45 14 83 26 85 26 1 1 2 -181 2 -404z m-340 -50 l0 -355 -340 0 -340 0 2
272 3 272 245 57 c194 45 335 81 428 108 1 1 2 -159 2 -354z m3801 -538 c31
-24 39 -56 39 -162 0 -104 -1 -107 -29 -136 l-29 -29 -2332 0 -2332 0 -29 29
c-28 29 -29 32 -29 136 0 106 8 138 39 162 23 18 4679 18 4702 0z"/>
</g>
</svg>
